<svg xmlns="http://www.w3.org/2000/svg" viewBox="0 0 16 16">
  <rect width="16" height="16" fill="#c0c0c0"/>
  <rect x="1" y="1" width="14" height="14" fill="#808080" stroke="#ffffff" stroke-width="0.5"/>
  <rect x="2" y="2" width="3" height="3" fill="#c0c0c0"/>
  <rect x="6" y="2" width="3" height="3" fill="#c0c0c0"/>
  <rect x="10" y="2" width="3" height="3" fill="#c0c0c0"/>
  <rect x="2" y="6" width="3" height="3" fill="#c0c0c0"/>
  <rect x="6" y="6" width="3" height="3" fill="#ff4444"/>
  <rect x="10" y="6" width="3" height="3" fill="#c0c0c0"/>
  <rect x="2" y="10" width="3" height="3" fill="#c0c0c0"/>
  <rect x="6" y="10" width="3" height="3" fill="#c0c0c0"/>
  <rect x="10" y="10" width="3" height="3" fill="#c0c0c0"/>
  <circle cx="7.5" cy="7.5" r="1.5" fill="#000000"/>
  <line x1="7.5" y1="4.5" x2="7.5" y2="5.5" stroke="#000" stroke-width="1"/>
  <line x1="7.5" y1="9.5" x2="7.5" y2="10.5" stroke="#000" stroke-width="1"/>
  <line x1="4.5" y1="7.5" x2="5.5" y2="7.5" stroke="#000" stroke-width="1"/>
  <line x1="9.5" y1="7.5" x2="10.5" y2="7.5" stroke="#000" stroke-width="1"/>
</svg>
